<svg width="940" height="328" viewBox="0 0 940 328" fill="none" xmlns="http://www.w3.org/2000/svg">
<circle cx="163.99" cy="163.99" r="158.737" stroke="#D6CBFF" stroke-width="10.5047"/>
<path fill-rule="evenodd" clip-rule="evenodd" d="M169.242 282.345C167.501 282.421 165.75 282.459 163.99 282.459C98.5612 282.459 45.5206 229.418 45.5206 163.99C45.5206 98.5608 98.5612 45.5203 163.99 45.5203C229.419 45.5203 282.459 98.5608 282.459 163.99C282.459 220.393 243.042 267.591 190.251 279.538V290.288C248.889 278.159 292.964 226.221 292.964 163.99C292.964 92.7593 235.22 35.0156 163.99 35.0156C92.7596 35.0156 35.016 92.7593 35.016 163.99C35.016 235.22 92.7596 292.964 163.99 292.964C165.749 292.964 167.5 292.928 169.242 292.859V282.345Z" fill="#7B58E5"/>
<line x1="163.99" y1="292.964" x2="163.99" y2="213.547" stroke="#7B58E5" stroke-width="10.5047"/>
<path d="M163.698 99.2109L163.698 135.413" stroke="#72777C" stroke-width="7.58671"/>
<circle cx="163.943" cy="90.4103" r="11.0883" transform="rotate(126 163.943 90.4103)" stroke="#72777C" stroke-width="7.00311"/>
<line x1="189.138" y1="125.441" x2="172.231" y2="142.344" stroke="#72777C" stroke-width="7.58671"/>
<line x1="163.698" y1="159.904" x2="163.698" y2="196.087" stroke="#72777C" stroke-width="7.58671"/>
<circle cx="163.99" cy="147.168" r="11.0883" transform="rotate(126 163.99 147.168)" stroke="#72777C" stroke-width="7.00311"/>
<circle cx="195.364" cy="119.59" r="11.0883" transform="rotate(126 195.364 119.59)" stroke="#7B58E5" stroke-width="7.00311"/>
<line y1="-3.79335" x2="23.9072" y2="-3.79335" transform="matrix(0.70719 0.707023 0.707023 -0.70719 141.524 122.758)" stroke="#72777C" stroke-width="7.58671"/>
<circle r="11.0883" transform="matrix(0.587786 0.809017 0.809017 -0.587786 132.616 119.589)" stroke="#72777C" stroke-width="7.00311"/>
<line x1="188.672" y1="182.541" x2="171.765" y2="199.444" stroke="#787878" stroke-width="7.58671"/>
<line y1="-3.79335" x2="23.9072" y2="-3.79335" transform="matrix(0.70719 0.707023 0.707023 -0.70719 203.806 179.858)" stroke="#72777C" stroke-width="7.58671"/>
<circle r="11.0883" transform="matrix(0.587786 0.809017 0.809017 -0.587786 225.807 204.609)" stroke="#7B58E5" stroke-width="7.00311"/>
<line x1="219.581" y1="154.622" x2="202.674" y2="171.525" stroke="#72777C" stroke-width="7.58671"/>
<circle cx="194.898" cy="176.69" r="11.0883" transform="rotate(126 194.898 176.69)" stroke="#72777C" stroke-width="7.00311"/>
<circle cx="225.807" cy="148.771" r="11.0883" transform="rotate(126 225.807 148.771)" stroke="#72777C" stroke-width="7.00311"/>
<line y1="-3.79335" x2="23.9072" y2="-3.79335" transform="matrix(0.70719 0.707023 0.707023 -0.70719 141.989 179.858)" stroke="#787878" stroke-width="7.58671"/>
<line x1="126.856" y1="182.541" x2="109.949" y2="199.444" stroke="#787878" stroke-width="7.58671"/>
<circle cx="102.173" cy="204.609" r="11.0883" transform="rotate(126 102.173 204.609)" stroke="#787878" stroke-width="7.00311"/>
<line y1="-3.79335" x2="23.9072" y2="-3.79335" transform="matrix(0.70719 0.707023 0.707023 -0.70719 111.08 151.939)" stroke="#787878" stroke-width="7.58671"/>
<circle r="11.0883" transform="matrix(0.587786 0.809017 0.809017 -0.587786 133.081 176.69)" stroke="#7B58E5" stroke-width="7.00311"/>
<circle r="11.0883" transform="matrix(0.587786 0.809017 0.809017 -0.587786 102.173 148.771)" stroke="#72777C" stroke-width="7.00311"/>
<circle cx="163.99" cy="203.926" r="11.0883" transform="rotate(126 163.99 203.926)" stroke="#72777C" stroke-width="7.00311"/>
<path d="M415.818 146.896C411.134 146.896 406.935 146.135 403.224 144.614C399.513 143.093 396.531 140.842 394.28 137.861C392.09 134.879 390.934 131.29 390.812 127.091H407.422C407.666 129.464 408.487 131.29 409.886 132.567C411.286 133.784 413.111 134.393 415.362 134.393C417.674 134.393 419.499 133.875 420.838 132.841C422.177 131.746 422.846 130.255 422.846 128.369C422.846 126.787 422.298 125.479 421.203 124.445C420.169 123.411 418.861 122.559 417.279 121.889C415.758 121.22 413.567 120.46 410.708 119.608C406.57 118.33 403.194 117.052 400.577 115.775C397.961 114.497 395.71 112.611 393.824 110.116C391.938 107.622 390.995 104.367 390.995 100.351C390.995 94.3887 393.155 89.7343 397.474 86.3879C401.794 82.9808 407.422 81.2772 414.358 81.2772C421.416 81.2772 427.105 82.9808 431.425 86.3879C435.744 89.7343 438.056 94.4191 438.361 100.443H421.477C421.355 98.3739 420.595 96.7616 419.195 95.6056C417.796 94.3887 416.001 93.7803 413.811 93.7803C411.925 93.7803 410.404 94.2974 409.248 95.3318C408.091 96.3052 407.513 97.735 407.513 99.6211C407.513 101.69 408.487 103.302 410.434 104.458C412.381 105.614 415.423 106.861 419.56 108.2C423.698 109.599 427.044 110.938 429.599 112.216C432.216 113.493 434.467 115.349 436.353 117.783C438.239 120.216 439.182 123.35 439.182 127.183C439.182 130.833 438.239 134.149 436.353 137.13C434.528 140.112 431.85 142.485 428.322 144.249C424.793 146.013 420.625 146.896 415.818 146.896ZM479.907 146.257L464.392 124.901V146.257H448.786V78.7218H464.392V116.049L479.816 95.3318H499.072L477.899 120.886L499.255 146.257H479.907ZM513.051 90.0385C510.313 90.0385 508.061 89.2475 506.297 87.6656C504.593 86.0229 503.742 84.0151 503.742 81.6422C503.742 79.2085 504.593 77.2007 506.297 75.6188C508.061 73.9761 510.313 73.1547 513.051 73.1547C515.728 73.1547 517.918 73.9761 519.622 75.6188C521.386 77.2007 522.268 79.2085 522.268 81.6422C522.268 84.0151 521.386 86.0229 519.622 87.6656C517.918 89.2475 515.728 90.0385 513.051 90.0385ZM520.808 95.3318V146.257H505.202V95.3318H520.808ZM547.724 78.7218V146.257H532.117V78.7218H547.724ZM574.639 78.7218V146.257H559.033V78.7218H574.639ZM606.666 146.987C602.224 146.987 598.269 146.226 594.801 144.705C591.333 143.184 588.595 141.116 586.588 138.499C584.58 135.822 583.454 132.841 583.211 129.556H598.634C598.817 131.32 599.638 132.75 601.099 133.845C602.559 134.94 604.354 135.488 606.483 135.488C608.43 135.488 609.921 135.123 610.955 134.393C612.05 133.602 612.598 132.598 612.598 131.381C612.598 129.921 611.837 128.856 610.316 128.187C608.795 127.457 606.331 126.666 602.924 125.814C599.273 124.962 596.231 124.08 593.797 123.167C591.364 122.194 589.265 120.703 587.5 118.695C585.736 116.627 584.854 113.858 584.854 110.39C584.854 107.47 585.645 104.823 587.226 102.45C588.869 100.017 591.242 98.1001 594.345 96.7007C597.509 95.3013 601.251 94.6016 605.57 94.6016C611.959 94.6016 616.978 96.1836 620.629 99.3474C624.34 102.511 626.47 106.709 627.017 111.942H612.598C612.354 110.177 611.563 108.778 610.225 107.744C608.947 106.709 607.244 106.192 605.114 106.192C603.289 106.192 601.889 106.557 600.916 107.287C599.942 107.957 599.456 108.9 599.456 110.116C599.456 111.577 600.216 112.672 601.737 113.402C603.319 114.132 605.753 114.862 609.038 115.592C612.811 116.566 615.883 117.539 618.256 118.513C620.629 119.425 622.698 120.946 624.462 123.076C626.287 125.145 627.23 127.943 627.291 131.472C627.291 134.453 626.439 137.13 624.736 139.503C623.093 141.815 620.69 143.641 617.526 144.979C614.423 146.318 610.803 146.987 606.666 146.987Z" fill="#6C4DEA"/>
<path d="M445.935 242.683H435.531L404.228 195.317V242.683H393.824V179.163H404.228L435.531 226.438V179.163H445.935V242.683ZM505.686 216.307C505.686 218.194 505.564 219.897 505.321 221.418H466.899C467.203 225.434 468.694 228.658 471.371 231.092C474.048 233.526 477.333 234.743 481.227 234.743C486.825 234.743 490.78 232.4 493.092 227.715H504.317C502.796 232.339 500.028 236.142 496.012 239.123C492.057 242.044 487.129 243.504 481.227 243.504C476.421 243.504 472.101 242.439 468.268 240.31C464.496 238.119 461.514 235.077 459.324 231.183C457.195 227.229 456.13 222.665 456.13 217.494C456.13 212.322 457.164 207.79 459.233 203.896C461.362 199.941 464.313 196.899 468.085 194.769C471.918 192.64 476.299 191.575 481.227 191.575C485.973 191.575 490.202 192.609 493.913 194.678C497.624 196.747 500.514 199.667 502.583 203.439C504.652 207.151 505.686 211.44 505.686 216.307ZM494.826 213.022C494.765 209.189 493.396 206.116 490.719 203.804C488.042 201.492 484.726 200.336 480.771 200.336C477.181 200.336 474.109 201.492 471.553 203.804C468.998 206.056 467.477 209.128 466.99 213.022H494.826ZM528.063 200.884V228.719C528.063 230.605 528.489 231.974 529.34 232.826C530.253 233.617 531.774 234.013 533.904 234.013H540.292V242.683H532.078C527.393 242.683 523.804 241.587 521.309 239.397C518.815 237.207 517.567 233.648 517.567 228.719V200.884H511.635V192.396H517.567V179.893H528.063V192.396H540.292V200.884H528.063ZM617.416 192.396L601.81 242.683H590.858L580.728 205.538L570.598 242.683H559.646L543.949 192.396H554.536L565.031 232.826L575.709 192.396H586.569L596.791 232.644L607.195 192.396H617.416ZM647.003 243.504C642.258 243.504 637.968 242.439 634.135 240.31C630.302 238.119 627.29 235.077 625.1 231.183C622.91 227.229 621.815 222.665 621.815 217.494C621.815 212.383 622.94 207.85 625.191 203.896C627.443 199.941 630.515 196.899 634.409 194.769C638.303 192.64 642.653 191.575 647.46 191.575C652.266 191.575 656.616 192.64 660.51 194.769C664.404 196.899 667.477 199.941 669.728 203.896C671.979 207.85 673.105 212.383 673.105 217.494C673.105 222.605 671.949 227.137 669.637 231.092C667.325 235.047 664.161 238.119 660.145 240.31C656.191 242.439 651.81 243.504 647.003 243.504ZM647.003 234.469C649.68 234.469 652.175 233.83 654.487 232.552C656.86 231.275 658.776 229.358 660.237 226.803C661.697 224.247 662.427 221.144 662.427 217.494C662.427 213.843 661.727 210.771 660.328 208.276C658.928 205.721 657.073 203.804 654.761 202.527C652.449 201.249 649.954 200.61 647.277 200.61C644.6 200.61 642.106 201.249 639.794 202.527C637.542 203.804 635.748 205.721 634.409 208.276C633.07 210.771 632.401 213.843 632.401 217.494C632.401 222.909 633.77 227.107 636.508 230.088C639.307 233.009 642.805 234.469 647.003 234.469ZM693.794 199.697C695.315 197.142 697.323 195.165 699.817 193.765C702.373 192.305 705.384 191.575 708.852 191.575V202.344H706.206C702.129 202.344 699.026 203.378 696.897 205.447C694.828 207.516 693.794 211.105 693.794 216.216V242.683H683.39V192.396H693.794V199.697ZM738.311 217.585L761.492 242.683H747.437L728.82 221.053V242.683H718.416V175.148H728.82V214.391L747.072 192.396H761.492L738.311 217.585Z" fill="#72777C"/>
</svg>
